<?xml version="1.0" standalone="no"?>
<!DOCTYPE svg PUBLIC "-//W3C//DTD SVG 20010904//EN"
 "http://www.w3.org/TR/2001/REC-SVG-20010904/DTD/svg10.dtd">
<svg version="1.0" xmlns="http://www.w3.org/2000/svg"
 width="512.000000pt" height="512.000000pt" viewBox="0 0 512.000000 512.000000"
 preserveAspectRatio="xMidYMid meet">
<metadata>
Created by potrace 1.11, written by Peter Selinger 2001-2013
</metadata>
<g transform="translate(0.000000,512.000000) scale(0.100000,-0.100000)"
fill="#000000" stroke="none">
<path d="M0 2560 l0 -2560 2560 0 2560 0 0 2560 0 2560 -2560 0 -2560 0 0
-2560z m4620 1425 l0 -585 -2055 0 -2055 0 0 585 0 585 2055 0 2055 0 0 -585z
m0 -1430 l0 -585 -2055 0 -2055 0 0 585 0 585 2055 0 2055 0 0 -585z m0 -1465
l0 -590 -2055 0 -2055 0 0 590 0 590 2055 0 2055 0 0 -590z"/>
<path d="M772 3988 l3 -323 1790 0 1790 0 3 323 2 322 -1795 0 -1795 0 2 -322z
m458 2 l0 -130 -130 0 -130 0 0 130 0 130 130 0 130 0 0 -130z m520 0 l0 -130
-130 0 -130 0 0 130 0 130 130 0 130 0 0 -130z m520 0 l0 -130 -130 0 -130 0
0 130 0 130 130 0 130 0 0 -130z"/>
<path d="M770 2555 l0 -325 1795 0 1795 0 0 325 0 325 -1795 0 -1795 0 0 -325z
m460 35 l0 -130 -130 0 -130 0 0 130 0 130 130 0 130 0 0 -130z m520 0 l0
-130 -130 0 -130 0 0 130 0 130 130 0 130 0 0 -130z m520 0 l0 -130 -130 0
-130 0 0 130 0 130 130 0 130 0 0 -130z"/>
<path d="M772 1088 l3 -323 1790 0 1790 0 3 323 2 322 -1795 0 -1795 0 2 -322z
m458 2 l0 -130 -130 0 -130 0 0 130 0 130 130 0 130 0 0 -130z m520 0 l0 -130
-130 0 -130 0 0 130 0 130 130 0 130 0 0 -130z m520 0 l0 -130 -130 0 -130 0
0 130 0 130 130 0 130 0 0 -130z"/>
</g>
</svg>
